<svg id="Layer_1" data-name="Layer 1" xmlns="http://www.w3.org/2000/svg" viewBox="0 0 35.74 81.54"><path d="M48.06,88.14H46.94c-5.93,0-14.35.3-14.65,0,2.43-1.55,6.65-2.62,8.46-3.69A60.82,60.82,0,0,0,46,81.2L46.08,79c0-.52-.39-5.39-.51-10.9l-.21-10-6.09-6c-10.55-10.3-12-19.27-6.52-40.65L34,6.73H61l1.26,4.77c5.46,21.38,4,30.35-6.52,40.65l-6.09,6-.21,10c-.12,5.51-.53,10.38-.51,10.9L49,81.2a60.82,60.82,0,0,0,5.25,3.25c1.81,1.07,6,2.14,8.46,3.69-.3.3-8.72,0-14.65,0Z" transform="translate(-29.63 -6.73)"/></svg>
