<svg id="Layer_1" data-name="Layer 1" xmlns="http://www.w3.org/2000/svg" viewBox="0 0 89.17 81.44"><defs><style>.cls-1{fill:#231f20;}</style></defs><path class="cls-1" d="M55.66,20.56C69.56,8,90.27,6.8,90.27,6.8S29.54,4.72,43.68,50.47c.19-15.62,4.84-23.45,12-29.91Z" transform="translate(-2.92 -6.78)"/><path class="cls-1" d="M90,6.91S69.37,9,56,22.16C49.2,28.89,44.9,36.87,45.34,52.35,44.4,64.44,34.66,85.21,34.66,85.21c2.14,5.6,7.3,1.66,7.3,1.66-1.82-5.8,7-32,7.84-34.48,13.37-.94,51.54-7,40.21-45.48Z" transform="translate(-2.92 -6.78)"/><path class="cls-1" d="M27.37,37.74C18,29.28,4.13,28.49,4.13,28.49S44.9,27.1,35.41,57.82c-.13-10.49-3.25-15.75-8-20.08Z" transform="translate(-2.92 -6.78)"/><path class="cls-1" d="M4.31,28.57S18.16,30,27.13,38.81c4.57,4.51,7.46,9.87,7.17,20.26.63,8.12,7.17,22.06,7.17,22.06-1.44,3.77-4.91,1.12-4.91,1.12,1.23-3.89-4.69-21.48-5.26-23.15-9-.63-34.6-4.67-27-30.53Z" transform="translate(-2.92 -6.78)"/></svg>
